<svg xmlns="http://www.w3.org/2000/svg" viewBox="0 0 900 900"><g fill="none" stroke-width="2"><path stroke="#c08782" d="m440.79 163.25.02 170.44a.68.62-84.1 0 0 .48.65l4.96 1.12" vector-effect="non-scaling-stroke"/><path stroke="#dc9c83" d="m446.25 335.46 155.26 34.75a.54.51-80.6 0 0 .62-.47l17.02-159.25a.77.56-80.5 0 0-.39-.78l-177.22-49.84a.49.49-74.5 0 0-.61.35q-.42 1.55-.14 3.03" vector-effect="non-scaling-stroke"/><path stroke="#9c2406" d="M446.25 335.46q-1.44-1.54-3.04-1.74a1.74 1.66-86.6 0 1-1.46-1.72V164.25a.47.29 0 0 0-.47-.29q-.43 0-.49-.71" vector-effect="non-scaling-stroke"/><path stroke="#c08782" d="m736.04 557 1.17-9.5" vector-effect="non-scaling-stroke"/><path stroke="#dc9c83" d="m737.21 547.5.29-2.96" vector-effect="non-scaling-stroke"/><path stroke="#f7a080" d="m737.5 544.54 4.04-35.54" vector-effect="non-scaling-stroke"/><path stroke="#dc9c83" d="m741.54 509 2.5-20.25" vector-effect="non-scaling-stroke"/><path stroke="#c08782" d="m744.04 488.75.92-7.75" vector-effect="non-scaling-stroke"/><path stroke="#dc9c83" d="m744.96 481 1.49-12.01" vector-effect="non-scaling-stroke"/><path stroke="#f7a080" d="m746.45 468.99 5.59-47.99" vector-effect="non-scaling-stroke"/><path stroke="#dc9c83" d="m752.04 421 3.23-27.79" vector-effect="non-scaling-stroke"/><path stroke="#f7a080" d="m755.27 393.21.96-6.7a1.59 1.02 41.1 0 0-.28-.96l-119.6-175.43q-.29-.43-.36.16l-55.7 515.47q-.12 1.09.76.3l150.6-135.41a1.52 1.22-22.5 0 0 .46-.84l3.93-32.8" vector-effect="non-scaling-stroke"/><path stroke="#d33c04" d="M755.27 393.21q-2.81 13.76-3.23 27.79m-5.59 47.99q-1.65 6.02-1.91 12.26" vector-effect="non-scaling-stroke"/><path stroke="#b72802" d="m744.54 481.25-.58 5.75" vector-effect="non-scaling-stroke"/><path stroke="#d33c04" d="M743.96 487q-2.07 10.91-2.42 22m-4.04 35.54q-1.08 1.55-.71 3.46" vector-effect="non-scaling-stroke"/><path stroke="#b72802" d="M736.79 548q-1.08 4.45-.75 9" vector-effect="non-scaling-stroke"/><path stroke="#9c2406" d="m744.96 481-.42.25m-.5 7.5-.08-1.75m-6.75 60.5-.42.5" vector-effect="non-scaling-stroke"/><path stroke="#dc9c83" d="m317.6 527.73-3.56-24.23" vector-effect="non-scaling-stroke"/><path stroke="#f7a080" d="M314.04 503.5q-13.78-100.58-28.18-201.07-.72-5.04-1.05-6.67a.75.63 88.3 0 0-.5-.56l-143.14-31.56a.62.56 2.9 0 0-.75.62l48.31 324.99a2.81 2.48 19 0 0 .91 1.6l154.67 134.84q1.72 1.49 1.28-.72-.18-.96-.47-2.99-13.84-97.11-27.52-194.25" vector-effect="non-scaling-stroke"/><path stroke="#d33c04" d="M314.04 503.5c-.63 2.19 2.31 23.23 3.56 24.23" vector-effect="non-scaling-stroke"/><path stroke="#c08782" d="m570.98 645.76 2.24-19.98" vector-effect="non-scaling-stroke"/><path stroke="#dc9c83" d="m573.22 625.78 3.92-35.28a.46.4-86.8 0 0-.39-.5H346a.48.44-3.6 0 0-.48.5l19.1 135.93a.39.37-3.4 0 0 .38.32h196.75a.81.74 2.7 0 0 .8-.66l8.43-80.33" vector-effect="non-scaling-stroke"/><path stroke="#9c2406" d="M573.22 625.78q-2.51 9.84-2.24 19.98" vector-effect="non-scaling-stroke"/></g><path fill="#fff" d="M0 0h900v900H0V0Zm440.79 163.25.02 170.44a.68.62-84.1 0 0 .48.65l4.96 1.12 155.26 34.75a.54.51-80.6 0 0 .62-.47l17.02-159.25a.77.56-80.5 0 0-.39-.78l-177.22-49.84a.49.49-74.5 0 0-.61.35q-.42 1.55-.14 3.03ZM736.04 557l1.17-9.5.29-2.96 4.04-35.54 2.5-20.25.92-7.75 1.49-12.01 5.59-47.99 3.23-27.79.96-6.7a1.59 1.02 41.1 0 0-.28-.96l-119.6-175.43q-.29-.43-.36.16l-55.7 515.47q-.12 1.09.76.3l150.6-135.41a1.52 1.22-22.5 0 0 .46-.84l3.93-32.8ZM317.6 527.73l-3.56-24.23q-13.78-100.58-28.18-201.07-.72-5.04-1.05-6.67a.75.63 88.3 0 0-.5-.56l-143.14-31.56a.62.56 2.9 0 0-.75.62l48.31 324.99a2.81 2.48 19 0 0 .91 1.6l154.67 134.84q1.72 1.49 1.28-.72-.18-.96-.47-2.99-13.84-97.11-27.52-194.25Zm253.38 118.03 2.24-19.98 3.92-35.28a.46.4-86.8 0 0-.39-.5H346a.48.44-3.6 0 0-.48.5l19.1 135.93a.39.37-3.4 0 0 .38.32h196.75a.81.74 2.7 0 0 .8-.66l8.43-80.33Z"/><path fill="#b83807" d="M446.25 335.46q-1.44-1.54-3.04-1.74a1.74 1.66-86.6 0 1-1.46-1.72V164.25a.47.29 0 0 0-.47-.29q-.43 0-.49-.71-.28-1.48.14-3.03a.49.49-74.5 0 1 .61-.35l177.22 49.84a.77.56-80.5 0 1 .39.78l-17.02 159.25a.54.51-80.6 0 1-.62.47l-155.26-34.75Z"/><path fill="#800f04" d="M440.79 163.25q.06.71.49.71a.47.29 0 0 1 .47.29V332a1.74 1.66-86.6 0 0 1.46 1.72q1.6.2 3.04 1.74l-4.96-1.12a.68.62-84.1 0 1-.48-.65l-.02-170.44Z"/><path fill="#ee4000" d="M755.27 393.21q-2.81 13.76-3.23 27.79l-5.59 47.99q-1.65 6.02-1.91 12.26l-.58 5.75q-2.07 10.91-2.42 22l-4.04 35.54q-1.08 1.55-.71 3.46-1.08 4.45-.75 9l-3.93 32.8a1.52 1.22-22.5 0 1-.46.84l-150.6 135.41q-.88.79-.76-.3l55.7-515.47q.07-.59.36-.16l119.6 175.43a1.59 1.02 41.1 0 1 .28.96l-.96 6.7ZM314.04 503.5c-.63 2.19 2.31 23.23 3.56 24.23q13.68 97.14 27.52 194.25.29 2.03.47 2.99.44 2.21-1.28.72L189.64 590.85a2.81 2.48 19 0 1-.91-1.6l-48.31-324.99a.62.56 2.9 0 1 .75-.62l143.14 31.56a.75.63 88.3 0 1 .5.56q.33 1.63 1.05 6.67 14.4 100.49 28.18 201.07Z"/><path fill="#b83807" d="M755.27 393.21 752.04 421q.42-14.03 3.23-27.79Zm-8.82 75.78L744.96 481l-.42.25q.26-6.24 1.91-12.26Z"/><path fill="#800f04" d="m744.96 481-.92 7.75-.08-1.75.58-5.75.42-.25Z"/><path fill="#b83807" d="m743.96 487 .08 1.75-2.5 20.25q.35-11.09 2.42-22Zm-429.92 16.5 3.56 24.23c-1.25-1-4.19-22.04-3.56-24.23Zm423.46 41.04-.29 2.96-.42.5q-.37-1.91.71-3.46Z"/><path fill="#800f04" d="m737.21 547.5-1.17 9.5q-.33-4.55.75-9l.42-.5Z"/><path fill="#b83807" d="M573.22 625.78q-2.51 9.84-2.24 19.98l-8.43 80.33a.81.74 2.7 0 1-.8.66H365a.39.37-3.4 0 1-.38-.32l-19.1-135.93a.48.44-3.6 0 1 .48-.5h230.75a.46.4-86.8 0 1 .39.5l-3.92 35.28Z"/><path fill="#800f04" d="m573.22 625.78-2.24 19.98q-.27-10.14 2.24-19.98Z"/></svg>